# xmcd
#
# Track frame offsets:
#	150
#	15591
#	32112
#	51674
#	67421
#	87064
#	103506
#	122635
#	142780
#	159154
#	179888
#	198218
#	228027
#
# Disc length: 3870 seconds
#
# Revision: 7
# Processed by: cddbd v1.5.2PL0 Copyright (c) Steve Scherf et al.
# Submitted via: EasyCDDAExtractor 10.0.5.1
#
DISCID=aa0f1c0d
DTITLE=양파 4집 - Perfume
DYEAR=2001
DGENRE=Pop
TTITLE0=고백
TTITLE1=Special Night
TTITLE2=그대 없는 나
TTITLE3=Daydreamer
TTITLE4=Deepest in Your Heart
TTITLE5=Drive
TTITLE6=My Song
TTITLE7=One Fine Day
TTITLE8=님
TTITLE9=彼岸花(피안화)
TTITLE10=本能(본능)
TTITLE11=不言(불언)
TTITLE12=Data Track
EXTD=
EXTT0=
EXTT1=
EXTT2=
EXTT3=
EXTT4=
EXTT5=
EXTT6=
EXTT7=
EXTT8=
EXTT9=
EXTT10=
EXTT11=
EXTT12=
PLAYORDER=
